<?xml version="1.0" encoding="UTF-8"?>
<svg xmlns="http://www.w3.org/2000/svg" id="Layer_1" data-name="Layer 1" viewBox="0 0 24 24">
  <path d="m19.679,2.59L12,.045l-7.68,2.545c-1.388.461-2.32,1.752-2.32,3.212v6.162c0,6.516,6.852,10.449,8.95,11.499l.985.494,1.021-.412c2.122-.854,9.044-4.21,9.044-11.581v-6.162c0-1.46-.933-2.751-2.321-3.212Zm-.679,9.374c0,5.258-5.029,7.895-6.932,8.702-1.927-.999-7.068-4.1-7.068-8.702v-6.162c0-.165.106-.312.265-.364l6.735-2.232,6.734,2.232c.161.054.266.196.266.364v6.162Zm-4.5-2.464c0,.818-.393,1.544-1,2v3.5h-3v-3.5c-.607-.456-1-1.182-1-2,0-1.381,1.119-2.5,2.5-2.5s2.5,1.119,2.5,2.5Z"/>
</svg>
